<svg width="33" height="33" viewBox="0 0 33 33" fill="none" xmlns="http://www.w3.org/2000/svg">
<path d="M16.1203 2.87693C17.9527 1.05662 20.4254 0.0242422 23.0099 0.000421516C25.5944 -0.0233992 28.0857 0.963224 29.9515 2.74945C31.8172 4.53567 32.9094 6.97981 32.9946 9.55955C33.0798 12.1393 32.1513 14.65 30.4075 16.5551L30.0957 16.8797L15.5775 31.3751L15.5181 31.4246C14.3877 32.4409 12.92 33.0023 11.399 33C9.87803 32.9977 8.41199 32.4319 7.28472 31.4122C6.15745 30.3924 5.44913 28.9913 5.29691 27.48C5.14469 25.9686 5.55938 24.4547 6.4607 23.2311C6.5 23.1551 6.54699 23.0834 6.60093 23.017L6.69002 22.9181L6.83356 22.7731L7.06618 22.5293L7.07113 22.5342L19.339 10.2531C19.5483 10.0436 19.826 9.91608 20.1215 9.89371C20.417 9.87134 20.7107 9.95562 20.9492 10.1312L21.0878 10.2515C21.2976 10.4605 21.4253 10.7378 21.4477 11.0329C21.4701 11.328 21.3857 11.6213 21.2099 11.8595L21.0911 11.9979L8.56089 24.541C7.98096 25.2516 7.68798 26.153 7.73946 27.0682C7.79094 27.9835 8.18317 28.8465 8.83913 29.4877C9.4951 30.129 10.3674 30.5022 11.2848 30.5341C12.2022 30.5659 13.0983 30.2542 13.7973 29.66L28.37 15.1119C29.7203 13.7403 30.4843 11.8986 30.5008 9.97519C30.5173 8.05183 29.785 6.19727 28.4585 4.80281C27.1319 3.40834 25.3148 2.58302 23.3905 2.50097C21.4663 2.41893 19.5853 3.08657 18.1446 4.36304L17.8674 4.62666L17.8476 4.64972L2.11349 20.3611C1.8927 20.5821 1.59629 20.7116 1.28385 20.7233C0.971402 20.735 0.666094 20.6282 0.429307 20.4243C0.192519 20.2204 0.0418113 19.9345 0.00748345 19.6242C-0.0268444 19.3138 0.0577537 19.002 0.244268 18.7514L0.364703 18.613L16.1186 2.87857H16.1203V2.87693Z" fill="black"/>
</svg>
