<svg width="34" height="31" viewBox="0 0 34 31" fill="none" xmlns="http://www.w3.org/2000/svg">
<path d="M29.75 2.02709C30.3136 2.02709 30.8541 2.24065 31.2526 2.6208C31.6511 3.00096 31.875 3.51655 31.875 4.05417V20.2709C31.875 20.8085 31.6511 21.3241 31.2526 21.7042C30.8541 22.0844 30.3136 22.2979 29.75 22.2979H9.37975C8.25267 22.2982 7.17184 22.7255 6.375 23.4858L2.125 27.54V4.05417C2.125 3.51655 2.34888 3.00096 2.7474 2.6208C3.14591 2.24065 3.68641 2.02709 4.25 2.02709H29.75ZM4.25 0C3.12283 0 2.04183 0.427135 1.2448 1.18744C0.447767 1.94774 0 2.97894 0 4.05417L0 29.9867C4.46566e-05 30.1872 0.0624592 30.3833 0.179344 30.55C0.296229 30.7167 0.46233 30.8465 0.656624 30.9231C0.850917 30.9997 1.06467 31.0196 1.27083 30.9803C1.47698 30.941 1.66628 30.8442 1.81475 30.7022L7.87738 24.919C8.2758 24.5388 8.81621 24.3251 9.37975 24.325H29.75C30.8772 24.325 31.9582 23.8979 32.7552 23.1376C33.5522 22.3773 34 21.3461 34 20.2709V4.05417C34 2.97894 33.5522 1.94774 32.7552 1.18744C31.9582 0.427135 30.8772 0 29.75 0L4.25 0Z" fill="white"/>
<path d="M6.375 7.09484C6.375 6.82603 6.48694 6.56823 6.6862 6.37816C6.88546 6.18808 7.15571 6.0813 7.4375 6.0813H26.5625C26.8443 6.0813 27.1145 6.18808 27.3138 6.37816C27.5131 6.56823 27.625 6.82603 27.625 7.09484C27.625 7.36365 27.5131 7.62145 27.3138 7.81152C27.1145 8.0016 26.8443 8.10838 26.5625 8.10838H7.4375C7.15571 8.10838 6.88546 8.0016 6.6862 7.81152C6.48694 7.62145 6.375 7.36365 6.375 7.09484ZM6.375 12.1626C6.375 11.8937 6.48694 11.6359 6.6862 11.4459C6.88546 11.2558 7.15571 11.149 7.4375 11.149H26.5625C26.8443 11.149 27.1145 11.2558 27.3138 11.4459C27.5131 11.6359 27.625 11.8937 27.625 12.1626C27.625 12.4314 27.5131 12.6892 27.3138 12.8792C27.1145 13.0693 26.8443 13.1761 26.5625 13.1761H7.4375C7.15571 13.1761 6.88546 13.0693 6.6862 12.8792C6.48694 12.6892 6.375 12.4314 6.375 12.1626ZM6.375 17.2303C6.375 16.9615 6.48694 16.7037 6.6862 16.5136C6.88546 16.3235 7.15571 16.2167 7.4375 16.2167H18.0625C18.3443 16.2167 18.6145 16.3235 18.8138 16.5136C19.0131 16.7037 19.125 16.9615 19.125 17.2303C19.125 17.4991 19.0131 17.7569 18.8138 17.9469C18.6145 18.137 18.3443 18.2438 18.0625 18.2438H7.4375C7.15571 18.2438 6.88546 18.137 6.6862 17.9469C6.48694 17.7569 6.375 17.4991 6.375 17.2303Z" fill="white"/>
</svg>
