<svg width="31" height="31" viewBox="0 0 31 31" fill="white" xmlns="http://www.w3.org/2000/svg">
<path d="M30 26.7782H10M0 4.22266H6.66667H0ZM30 4.22266H13.3333H30ZM0 15.5004H20H0ZM30 15.5004H26.6667H30ZM0 26.7782H3.33333H0Z" stroke="white" stroke-width="2" stroke-linecap="round"/>
<path d="M10.0013 7.44444C11.8423 7.44444 13.3346 6.00181 13.3346 4.22222C13.3346 2.44264 11.8423 1 10.0013 1C8.16035 1 6.66797 2.44264 6.66797 4.22222C6.66797 6.00181 8.16035 7.44444 10.0013 7.44444Z" stroke="white" stroke-width="2" stroke-linecap="round"/>
<path d="M23.3333 18.7218C25.1743 18.7218 26.6667 17.2792 26.6667 15.4996C26.6667 13.72 25.1743 12.2773 23.3333 12.2773C21.4924 12.2773 20 13.72 20 15.4996C20 17.2792 21.4924 18.7218 23.3333 18.7218Z" stroke="white" stroke-width="2" stroke-linecap="round"/>
<path d="M6.66536 30.0001C8.50631 30.0001 9.9987 28.5575 9.9987 26.7779C9.9987 24.9983 8.50631 23.5557 6.66536 23.5557C4.82442 23.5557 3.33203 24.9983 3.33203 26.7779C3.33203 28.5575 4.82442 30.0001 6.66536 30.0001Z" stroke="white" stroke-width="2" stroke-linecap="round"/>
</svg>
