<svg width="31" height="24" viewBox="0 0 31 24" fill="none" xmlns="http://www.w3.org/2000/svg">
<path d="M0 1.70648C0 1.2539 0.163303 0.819846 0.453984 0.499818C0.744666 0.17979 1.13891 0 1.55 0H29.45C29.8611 0 30.2553 0.17979 30.546 0.499818C30.8367 0.819846 31 1.2539 31 1.70648C31 2.15907 30.8367 2.59312 30.546 2.91315C30.2553 3.23318 29.8611 3.41297 29.45 3.41297H1.55C1.13891 3.41297 0.744666 3.23318 0.453984 2.91315C0.163303 2.59312 0 2.15907 0 1.70648ZM0 12C0 11.5474 0.163303 11.1134 0.453984 10.7933C0.744666 10.4733 1.13891 10.2935 1.55 10.2935H29.45C29.8611 10.2935 30.2553 10.4733 30.546 10.7933C30.8367 11.1134 31 11.5474 31 12C31 12.4526 30.8367 12.8866 30.546 13.2067C30.2553 13.5267 29.8611 13.7065 29.45 13.7065H1.55C1.13891 13.7065 0.744666 13.5267 0.453984 13.2067C0.163303 12.8866 0 12.4526 0 12ZM1.55 20.587C1.13891 20.587 0.744666 20.7668 0.453984 21.0869C0.163303 21.4069 0 21.8409 0 22.2935C0 22.7461 0.163303 23.1802 0.453984 23.5002C0.744666 23.8202 1.13891 24 1.55 24H29.45C29.8611 24 30.2553 23.8202 30.546 23.5002C30.8367 23.1802 31 22.7461 31 22.2935C31 21.8409 30.8367 21.4069 30.546 21.0869C30.2553 20.7668 29.8611 20.587 29.45 20.587H1.55Z" fill="black"/>
</svg>
