<svg width="22" height="36" viewBox="0 0 22 36" fill="none" xmlns="http://www.w3.org/2000/svg">
<path d="M17.6666 7.66667C17.6666 3.98477 14.6819 1 11 1C7.31808 1 4.33331 3.98477 4.33331 7.66667V16C4.33331 19.6819 7.31808 22.6667 11 22.6667C14.6819 22.6667 17.6666 19.6819 17.6666 16V7.66667Z" stroke="black" stroke-width="2" stroke-linecap="round" stroke-linejoin="round"/>
<path d="M21 24.82C19.7501 26.2403 18.2115 27.3775 16.4871 28.1558C14.7626 28.9342 12.892 29.3356 11 29.3333C9.10805 29.3356 7.23738 28.9342 5.51293 28.1558C3.78848 27.3775 2.24992 26.2403 1 24.82M11 29.3333V34.3333M7.66667 34.3333H14.3333" stroke="black" stroke-width="2" stroke-linecap="round" stroke-linejoin="round"/>
</svg>
