<svg width="36" height="33" viewBox="0 0 36 33" fill="none" xmlns="http://www.w3.org/2000/svg">
<path d="M1 4.44446H8.55556M35 4.44446H16.1111M1 16.5H23.6667M35 16.5H31.2222M1 28.5556H4.77778M35 28.5556H12.3333" stroke="white" stroke-width="2" stroke-linecap="round"/>
<path d="M12.3333 7.88889C14.4197 7.88889 16.1111 6.34676 16.1111 4.44444C16.1111 2.54213 14.4197 1 12.3333 1C10.2469 1 8.55554 2.54213 8.55554 4.44444C8.55554 6.34676 10.2469 7.88889 12.3333 7.88889Z" stroke="white" stroke-width="2" stroke-linecap="round"/>
<path d="M27.4444 19.9444C29.5308 19.9444 31.2222 18.4023 31.2222 16.5C31.2222 14.5977 29.5308 13.0555 27.4444 13.0555C25.358 13.0555 23.6666 14.5977 23.6666 16.5C23.6666 18.4023 25.358 19.9444 27.4444 19.9444Z" stroke="white" stroke-width="2" stroke-linecap="round"/>
<path d="M8.55561 32C10.642 32 12.3334 30.4578 12.3334 28.5555C12.3334 26.6532 10.642 25.1111 8.55561 25.1111C6.4692 25.1111 4.77783 26.6532 4.77783 28.5555C4.77783 30.4578 6.4692 32 8.55561 32Z" stroke="white" stroke-width="2" stroke-linecap="round"/>
</svg>
