<svg width="33" height="33" viewBox="0 0 33 33" fill="none" xmlns="http://www.w3.org/2000/svg">
<path d="M8.25 13.1484C8.25 13.6173 8.43626 14.067 8.76779 14.3985C9.09933 14.73 9.54899 14.9163 10.0179 14.9163C10.4867 14.9163 10.9364 14.73 11.2679 14.3985C11.5995 14.067 11.7857 13.6173 11.7857 13.1484C11.7857 12.6796 11.5995 12.2299 11.2679 11.8984C10.9364 11.5668 10.4867 11.3806 10.0179 11.3806C9.54899 11.3806 9.09933 11.5668 8.76779 11.8984C8.43626 12.2299 8.25 12.6796 8.25 13.1484ZM21.2143 13.1484C21.2143 13.6173 21.4005 14.067 21.7321 14.3985C22.0636 14.73 22.5133 14.9163 22.9821 14.9163C23.451 14.9163 23.9007 14.73 24.2322 14.3985C24.5637 14.067 24.75 13.6173 24.75 13.1484C24.75 12.6796 24.5637 12.2299 24.2322 11.8984C23.9007 11.5668 23.451 11.3806 22.9821 11.3806C22.5133 11.3806 22.0636 11.5668 21.7321 11.8984C21.4005 12.2299 21.2143 12.6796 21.2143 13.1484ZM16.5 0C7.38817 0 0 7.38817 0 16.5C0 25.6118 7.38817 33 16.5 33C25.6118 33 33 25.6118 33 16.5C33 7.38817 25.6118 0 16.5 0ZM26.1864 26.1864C24.9268 27.446 23.4609 28.433 21.8294 29.1254C20.1462 29.84 18.3526 30.2009 16.5 30.2009C14.6474 30.2009 12.8538 29.84 11.167 29.1254C9.53785 28.4374 8.05805 27.4392 6.80993 26.1864C5.55033 24.9268 4.56328 23.4609 3.87087 21.8294C3.16004 20.1462 2.79911 18.3526 2.79911 16.5C2.79911 14.6474 3.16004 12.8538 3.87455 11.167C4.56257 9.53785 5.56078 8.05805 6.81362 6.80993C8.07321 5.55033 9.53906 4.56328 11.1706 3.87087C12.8538 3.16004 14.6474 2.79911 16.5 2.79911C18.3526 2.79911 20.1462 3.16004 21.833 3.87455C23.4622 4.56257 24.9419 5.56078 26.1901 6.81362C27.4497 8.07321 28.4367 9.53906 29.1291 11.1706C29.84 12.8538 30.2009 14.6474 30.2009 16.5C30.2009 18.3526 29.84 20.1462 29.1254 21.833C28.4383 23.4615 27.4399 24.9403 26.1864 26.1864ZM22.0982 17.2734H20.3267C20.172 17.2734 20.0394 17.3913 20.0283 17.546C19.8884 19.3691 18.3599 20.8092 16.5 20.8092C14.6401 20.8092 13.1079 19.3691 12.9717 17.546C12.9606 17.3913 12.828 17.2734 12.6733 17.2734H10.9018C10.8618 17.2734 10.8223 17.2815 10.7855 17.2972C10.7488 17.3129 10.7156 17.3359 10.6881 17.3649C10.6605 17.3938 10.6391 17.4281 10.6252 17.4655C10.6113 17.503 10.6051 17.5429 10.6071 17.5828C10.7692 20.6876 13.351 23.1663 16.5 23.1663C19.649 23.1663 22.2308 20.6876 22.3929 17.5828C22.3949 17.5429 22.3887 17.503 22.3748 17.4655C22.3609 17.4281 22.3395 17.3938 22.3119 17.3649C22.2844 17.3359 22.2512 17.3129 22.2145 17.2972C22.1777 17.2815 22.1382 17.2734 22.0982 17.2734Z" fill="black"/>
</svg>
