<svg width="38" height="35" viewBox="0 0 38 35" fill="none" xmlns="http://www.w3.org/2000/svg">
<path d="M12.199 2L5.39966 2.0093C4.49801 2.0093 3.6333 2.33591 2.99574 2.91727C2.35818 3.49863 2 4.28713 2 5.1093V11.3C2.00021 12.0598 2.30639 12.793 2.86042 13.3605C3.41444 13.928 4.17771 14.2902 5.0053 14.3783L5.40646 14.4L12.2058 14.3907C13.1068 14.3899 13.9707 14.0629 14.6075 13.4816C15.2443 12.9004 15.602 12.1123 15.602 11.2907V5.1031C15.6027 4.3428 15.2969 3.6088 14.7428 3.04067C14.1887 2.47253 13.4249 2.10989 12.5967 2.0217L12.199 2ZM32.5969 2L25.7976 2.0093C24.896 2.0093 24.0313 2.33591 23.3937 2.91727C22.7561 3.49863 22.398 4.28713 22.398 5.1093V11.3C22.3982 12.0598 22.7044 12.793 23.2584 13.3605C23.8124 13.928 24.5757 14.2902 25.4033 14.3783L25.8044 14.4L32.6037 14.3907C33.5048 14.3899 34.3686 14.0629 35.0055 13.4816C35.6423 12.9004 36 12.1123 36 11.2907V5.1031C36.0006 4.3428 35.6948 3.6088 35.1407 3.04067C34.5866 2.47253 33.8229 2.10989 32.9947 2.0217L32.5969 2ZM12.199 20.6L5.39966 20.6093C4.49801 20.6093 3.6333 20.9359 2.99574 21.5173C2.35818 22.0986 2 22.8871 2 23.7093V29.9C2.00021 30.6598 2.30639 31.393 2.86042 31.9605C3.41444 32.528 4.17771 32.8902 5.0053 32.9783L5.40646 33L12.2058 32.9907C13.1068 32.9899 13.9707 32.6629 14.6075 32.0816C15.2443 31.5004 15.602 30.7123 15.602 29.8907V23.7031C15.6027 22.9428 15.2969 22.2088 14.7428 21.6407C14.1887 21.0725 13.4249 20.7099 12.5967 20.6217L12.199 20.6ZM32.5969 20.6L25.7976 20.6093C24.896 20.6093 24.0313 20.9359 23.3937 21.5173C22.7561 22.0986 22.398 22.8871 22.398 23.7093V29.9C22.3982 30.6598 22.7044 31.393 23.2584 31.9605C23.8124 32.528 24.5757 32.8902 25.4033 32.9783L25.8044 33L32.6037 32.9907C33.5048 32.9899 34.3686 32.6629 35.0055 32.0816C35.6423 31.5004 36 30.7123 36 29.8907V23.7031C36.0006 22.9428 35.6948 22.2088 35.1407 21.6407C34.5866 21.0725 33.8229 20.7099 32.9947 20.6217L32.5969 20.6Z" stroke="black" stroke-width="3" stroke-linecap="round" stroke-linejoin="round"/>
</svg>
