<svg width="57" height="57" viewBox="0 0 57 57" fill="none" xmlns="http://www.w3.org/2000/svg">
<circle cx="28.5" cy="28.5" r="28.5" fill="#D6D6D6"/>
<path d="M40.9407 37.6663C40.2635 36.0384 39.2806 34.5598 38.0469 33.3127C36.8169 32.062 35.3599 31.0648 33.7563 30.3763C33.742 30.369 33.7276 30.3653 33.7133 30.358C35.9501 28.7186 37.4042 26.0481 37.4042 23.0352C37.4042 18.044 33.4188 14 28.5 14C23.5812 14 19.5958 18.044 19.5958 23.0352C19.5958 26.0481 21.0499 28.7186 23.2867 30.3617C23.2724 30.369 23.258 30.3726 23.2437 30.3799C21.6352 31.0685 20.1918 32.0558 18.9531 33.3163C17.7206 34.5644 16.7379 36.0428 16.0593 37.67C15.3926 39.263 15.0331 40.9709 15.0001 42.7013C14.9991 42.7401 15.0059 42.7788 15.0199 42.815C15.0339 42.8512 15.0549 42.8842 15.0816 42.9121C15.1084 42.9399 15.1404 42.962 15.1757 42.9771C15.211 42.9922 15.249 43 15.2873 43H17.4416C17.5995 43 17.7252 42.8725 17.7288 42.7158C17.8006 39.9033 18.9136 37.2692 20.8812 35.2727C22.9169 33.207 25.6205 32.0704 28.5 32.0704C31.3795 32.0704 34.0831 33.207 36.1188 35.2727C38.0864 37.2692 39.1994 39.9033 39.2712 42.7158C39.2748 42.8761 39.4005 43 39.5584 43H41.7127C41.751 43 41.789 42.9922 41.8243 42.9771C41.8596 42.962 41.8916 42.9399 41.9184 42.9121C41.9451 42.8842 41.9661 42.8512 41.9801 42.815C41.9941 42.7788 42.0009 42.7401 41.9999 42.7013C41.964 40.9598 41.6086 39.2657 40.9407 37.6663ZM28.5 29.3015C26.852 29.3015 25.301 28.6494 24.1341 27.4653C22.9672 26.2813 22.3245 24.7074 22.3245 23.0352C22.3245 21.3629 22.9672 19.7891 24.1341 18.605C25.301 17.421 26.852 16.7688 28.5 16.7688C30.148 16.7688 31.699 17.421 32.8659 18.605C34.0328 19.7891 34.6755 21.3629 34.6755 23.0352C34.6755 24.7074 34.0328 26.2813 32.8659 27.4653C31.699 28.6494 30.148 29.3015 28.5 29.3015Z" fill="black"/>
</svg>
